# xmcd
#
# Track frame offsets: 
#        150
#        24460
#        48883
#        75726
#        99516
#        140990
#        168557
#        199840
#
# Disc length: 3020 seconds
#
# Revision: 0
# Processed by: cddbd v1.5.2PL0 Copyright (c) Steve Scherf et al.
# Submitted via: ExactAudioCopy v0.95b3
#
DISCID=690bca08
DTITLE=Flower Travellin' Band  - We Are Here  FLAC
DYEAR=1900
DGENRE=
TTITLE0=What Will You Say - Flower Travellin' Band
TTITLE1=We Are Here - Flower Travellin' Band
TTITLE2=dYE-jobe - Flower Travellin' Band
TTITLE3=Don't Touch My Dreadlocks - Flower Travellin' Band
TTITLE4=Love Is ... - Flower Travellin' Band
TTITLE5=Over&Over - Flower Travellin' Band
TTITLE6=The Sleeping Giant(Resurrection) - Flower Travellin' Band
TTITLE7=Will It - Flower Travellin' Band
EXTD=
EXTT0=
EXTT1=
EXTT2=
EXTT3=
EXTT4=
EXTT5=
EXTT6=
EXTT7=
PLAYORDER=
